<svg width="1920" height="1000" viewBox="0 0 1920 1000" fill="none" xmlns="http://www.w3.org/2000/svg">
<g opacity="0.15" filter="url(#filter0_d)">
<path d="M1776.2 803.534L1811.63 739.521L1849.36 803.534M1776.2 803.534H1697.33L1735.05 868.689M1776.2 803.534L1849.36 933.845M1735.05 868.689L1697.33 933.845H1776.2M1735.05 868.689H1887.08M1776.2 933.845L1811.63 999L1849.36 933.845M1776.2 933.845L1849.36 803.534M1849.36 933.845H1924.8L1887.08 868.689M1887.08 868.689L1924.8 803.534H1849.36" stroke="#E71C4A" stroke-width="2"/>
<path d="M1778.49 417.174L1813.92 353.161L1851.64 417.174M1778.49 417.174H1699.61L1737.33 482.329M1778.49 417.174L1851.64 547.485M1737.33 482.329L1699.61 547.485H1778.49M1737.33 482.329H1889.36M1778.49 547.485L1813.92 612.64L1851.64 547.485M1778.49 547.485L1851.64 417.174M1851.64 547.485H1927.09L1889.36 482.329M1889.36 482.329L1927.09 417.174H1851.64" stroke="#E71C4A" stroke-width="2"/>
<path d="M1664.18 610.354L1699.61 546.341L1737.33 610.354M1664.18 610.354H1585.31L1623.03 675.509M1664.18 610.354L1737.33 740.664M1623.03 675.509L1585.31 740.664H1664.18M1623.03 675.509H1775.06M1664.18 740.664L1699.61 805.82L1737.33 740.664M1664.18 740.664L1737.33 610.354M1737.33 740.664H1812.78L1775.06 675.509M1775.06 675.509L1812.78 610.354H1737.33" stroke="#E71C4A" stroke-width="2"/>
<path d="M1549.87 803.534L1585.31 739.521L1623.03 803.534M1549.87 803.534H1471L1508.72 868.689M1549.87 803.534L1623.03 933.845M1508.72 868.689L1471 933.845H1549.87M1508.72 868.689H1660.75M1549.87 933.845L1585.31 999L1623.03 933.845M1549.87 933.845L1623.03 803.534M1623.03 933.845H1698.47L1660.75 868.689M1660.75 868.689L1698.47 803.534H1623.03" stroke="#E71C4A" stroke-width="2"/>
<path d="M1780.77 30.8136L1816.21 -33.1987L1853.93 30.8136M1780.77 30.8136H1701.9L1739.62 95.969M1780.77 30.8136L1853.93 161.124M1739.62 95.969L1701.9 161.124H1780.77M1739.62 95.969H1891.65M1780.77 161.124L1816.21 226.28L1853.93 161.124M1780.77 161.124L1853.93 30.8136M1853.93 161.124H1929.37L1891.65 95.969M1891.65 95.969L1929.37 30.8136H1853.93" stroke="#E71C4A" stroke-width="2"/>
<path d="M1666.46 223.994L1701.9 159.981L1739.62 223.994M1666.46 223.994H1587.59L1625.31 289.149M1666.46 223.994L1739.62 354.304M1625.31 289.149L1587.59 354.304H1666.46M1625.31 289.149H1777.34M1666.46 354.304L1701.9 419.46L1739.62 354.304M1666.46 354.304L1739.62 223.994M1739.62 354.304H1815.06L1777.34 289.149M1777.34 289.149L1815.06 223.994H1739.62" stroke="#E71C4A" stroke-width="2"/>
<path d="M1552.16 417.174L1587.59 353.161L1625.31 417.174M1552.16 417.174H1473.28L1511.01 482.329M1552.16 417.174L1625.31 547.485M1511.01 482.329L1473.28 547.485H1552.16M1511.01 482.329H1663.03M1552.16 547.485L1587.59 612.64L1625.31 547.485M1552.16 547.485L1625.31 417.174M1625.31 547.485H1700.76L1663.03 482.329M1663.03 482.329L1700.76 417.174H1625.31" stroke="#E71C4A" stroke-width="2"/>
<path d="M1437.85 610.354L1473.28 546.341L1511.01 610.354M1437.85 610.354H1358.98L1396.7 675.509M1437.85 610.354L1511.01 740.664M1396.7 675.509L1358.98 740.664H1437.85M1396.7 675.509H1548.73M1437.85 740.664L1473.28 805.82L1511.01 740.664M1437.85 740.664L1511.01 610.354M1511.01 740.664H1586.45L1548.73 675.509M1548.73 675.509L1586.45 610.354H1511.01" stroke="#E71C4A" stroke-width="2"/>
<path d="M1323.54 803.534L1358.98 739.521L1396.7 803.534M1323.54 803.534H1244.67L1282.39 868.689M1323.54 803.534L1396.7 933.845M1282.39 868.689L1244.67 933.845H1323.54M1282.39 868.689H1434.42M1323.54 933.845L1358.98 999L1396.7 933.845M1323.54 933.845L1396.7 803.534M1396.7 933.845H1472.14L1434.42 868.689M1434.42 868.689L1472.14 803.534H1396.7" stroke="#E71C4A" stroke-width="2"/>
<path d="M1554.44 30.8136L1589.88 -33.1987L1627.6 30.8136M1554.44 30.8136H1475.57L1513.29 95.969M1554.44 30.8136L1627.6 161.124M1513.29 95.969L1475.57 161.124H1554.44M1513.29 95.969H1665.32M1554.44 161.124L1589.88 226.28L1627.6 161.124M1554.44 161.124L1627.6 30.8136M1627.6 161.124H1703.04L1665.32 95.969M1665.32 95.969L1703.04 30.8136H1627.6" stroke="#E71C4A" stroke-width="2"/>
<path d="M1440.13 223.994L1475.57 159.981L1513.29 223.994M1440.13 223.994H1361.26L1398.98 289.149M1440.13 223.994L1513.29 354.304M1398.98 289.149L1361.26 354.304H1440.13M1398.98 289.149H1551.01M1440.13 354.304L1475.57 419.46L1513.29 354.304M1440.13 354.304L1513.29 223.994M1513.29 354.304H1588.73L1551.01 289.149M1551.01 289.149L1588.73 223.994H1513.29" stroke="#E71C4A" stroke-width="2"/>
<path d="M1325.83 417.174L1361.26 353.161L1398.98 417.174M1325.83 417.174H1246.95L1284.68 482.329M1325.83 417.174L1398.98 547.485M1284.68 482.329L1246.95 547.485H1325.83M1284.68 482.329H1436.71M1325.83 547.485L1361.26 612.64L1398.98 547.485M1325.83 547.485L1398.98 417.174M1398.98 547.485H1474.43L1436.71 482.329M1436.71 482.329L1474.43 417.174H1398.98" stroke="#E71C4A" stroke-width="2"/>
<path d="M1211.52 610.354L1246.95 546.341L1284.68 610.354M1211.52 610.354H1132.65L1170.37 675.509M1211.52 610.354L1284.68 740.664M1170.37 675.509L1132.65 740.664H1211.52M1170.37 675.509H1322.4M1211.52 740.664L1246.95 805.82L1284.68 740.664M1211.52 740.664L1284.68 610.354M1284.68 740.664H1360.12L1322.4 675.509M1322.4 675.509L1360.12 610.354H1284.68" stroke="#E71C4A" stroke-width="2"/>
<path d="M1097.21 803.534L1132.65 739.521L1170.37 803.534M1097.21 803.534H1018.34L1056.06 868.689M1097.21 803.534L1170.37 933.845M1056.06 868.689L1018.34 933.845H1097.21M1056.06 868.689H1208.09M1097.21 933.845L1132.65 999L1170.37 933.845M1097.21 933.845L1170.37 803.534M1170.37 933.845H1245.81L1208.09 868.689M1208.09 868.689L1245.81 803.534H1170.37" stroke="#E71C4A" stroke-width="2"/>
<path d="M1328.11 30.8136L1363.55 -33.1987L1401.27 30.8136M1328.11 30.8136H1249.24L1286.96 95.969M1328.11 30.8136L1401.27 161.124M1286.96 95.969L1249.24 161.124H1328.11M1286.96 95.969H1438.99M1328.11 161.124L1363.55 226.28L1401.27 161.124M1328.11 161.124L1401.27 30.8136M1401.27 161.124H1476.71L1438.99 95.969M1438.99 95.969L1476.71 30.8136H1401.27" stroke="#E71C4A" stroke-width="2"/>
<path d="M1213.81 223.994L1249.24 159.981L1286.96 223.994M1213.81 223.994H1134.93L1172.65 289.149M1213.81 223.994L1286.96 354.304M1172.65 289.149L1134.93 354.304H1213.81M1172.65 289.149H1324.68M1213.81 354.304L1249.24 419.46L1286.96 354.304M1213.81 354.304L1286.96 223.994M1286.96 354.304H1362.41L1324.68 289.149M1324.68 289.149L1362.41 223.994H1286.96" stroke="#E71C4A" stroke-width="2"/>
<path d="M1099.5 417.174L1134.93 353.161L1172.65 417.174M1099.5 417.174H1020.62L1058.35 482.329M1099.5 417.174L1172.65 547.485M1058.35 482.329L1020.62 547.485H1099.5M1058.35 482.329H1210.38M1099.5 547.485L1134.93 612.64L1172.65 547.485M1099.5 547.485L1172.65 417.174M1172.65 547.485H1248.1L1210.38 482.329M1210.38 482.329L1248.1 417.174H1172.65" stroke="#E71C4A" stroke-width="2"/>
<path d="M985.19 610.354L1020.62 546.341L1058.35 610.354M985.19 610.354H906.317L944.039 675.509M985.19 610.354L1058.35 740.664M944.039 675.509L906.317 740.664H985.19M944.039 675.509H1096.07M985.19 740.664L1020.62 805.82L1058.35 740.664M985.19 740.664L1058.35 610.354M1058.35 740.664H1133.79L1096.07 675.509M1096.07 675.509L1133.79 610.354H1058.35" stroke="#E71C4A" stroke-width="2"/>
<path d="M870.882 803.534L906.317 739.521L944.039 803.534M870.882 803.534H792.009L829.731 868.689M870.882 803.534L944.039 933.845M829.731 868.689L792.009 933.845H870.882M829.731 868.689H981.76M870.882 933.845L906.317 999L944.039 933.845M870.882 933.845L944.039 803.534M944.039 933.845H1019.48L981.76 868.689M981.76 868.689L1019.48 803.534H944.039" stroke="#E71C4A" stroke-width="2"/>
<path d="M1101.78 30.8136L1137.22 -33.1987L1174.94 30.8136M1101.78 30.8136H1022.91L1060.63 95.969M1101.78 30.8136L1174.94 161.124M1060.63 95.969L1022.91 161.124H1101.78M1060.63 95.969H1212.66M1101.78 161.124L1137.22 226.28L1174.94 161.124M1101.78 161.124L1174.94 30.8136M1174.94 161.124H1250.38L1212.66 95.969M1212.66 95.969L1250.38 30.8136H1174.94" stroke="#E71C4A" stroke-width="2"/>
<path d="M987.476 223.994L1022.91 159.981L1060.63 223.994M987.476 223.994H908.603L946.325 289.149M987.476 223.994L1060.63 354.304M946.325 289.149L908.603 354.304H987.476M946.325 289.149H1098.35M987.476 354.304L1022.91 419.46L1060.63 354.304M987.476 354.304L1060.63 223.994M1060.63 354.304H1136.08L1098.35 289.149M1098.35 289.149L1136.08 223.994H1060.63" stroke="#E71C4A" stroke-width="2"/>
<path d="M873.168 417.174L908.603 353.161L946.325 417.174M873.168 417.174H794.296L832.017 482.329M873.168 417.174L946.325 547.485M832.017 482.329L794.296 547.485H873.168M832.017 482.329H984.047M873.168 547.485L908.603 612.64L946.325 547.485M873.168 547.485L946.325 417.174M946.325 547.485H1021.77L984.047 482.329M984.047 482.329L1021.77 417.174H946.325" stroke="#E71C4A" stroke-width="2"/>
<path d="M758.86 610.354L794.296 546.342L832.017 610.354M758.86 610.354H679.988L717.71 675.509M758.86 610.354L832.017 740.665M717.71 675.509L679.988 740.665H758.86M717.71 675.509H869.739M758.86 740.665L794.296 805.82L832.017 740.665M758.86 740.665L832.017 610.354M832.017 740.665H907.46L869.739 675.509M869.739 675.509L907.46 610.354H832.017" stroke="#E71C4A" stroke-width="2"/>
<path d="M644.553 803.534L679.988 739.521L717.709 803.534M644.553 803.534H565.68L603.402 868.689M644.553 803.534L717.709 933.844M603.402 868.689L565.68 933.844H644.553M603.402 868.689H755.431M644.553 933.844L679.988 999L717.709 933.844M644.553 933.844L717.709 803.534M717.709 933.844H793.153L755.431 868.689M755.431 868.689L793.153 803.534H717.709" stroke="#E71C4A" stroke-width="2"/>
<path d="M875.454 30.8136L910.89 -33.1987L948.611 30.8136M875.454 30.8136H796.582L834.304 95.969M875.454 30.8136L948.611 161.124M834.304 95.969L796.582 161.124H875.454M834.304 95.969H986.333M875.454 161.124L910.89 226.28L948.611 161.124M875.454 161.124L948.611 30.8136M948.611 161.124H1024.05L986.333 95.969M986.333 95.969L1024.05 30.8136H948.611" stroke="#E71C4A" stroke-width="2"/>
<path d="M761.146 223.994L796.582 159.981L834.303 223.994M761.146 223.994H682.274L719.996 289.149M761.146 223.994L834.303 354.304M719.996 289.149L682.274 354.304H761.146M719.996 289.149H872.025M761.146 354.304L796.582 419.46L834.303 354.304M761.146 354.304L834.303 223.994M834.303 354.304H909.746L872.025 289.149M872.025 289.149L909.746 223.994H834.303" stroke="#E71C4A" stroke-width="2"/>
<path d="M646.839 417.174L682.274 353.161L719.996 417.174M646.839 417.174H567.966L605.688 482.329M646.839 417.174L719.996 547.485M605.688 482.329L567.966 547.485H646.839M605.688 482.329H757.717M646.839 547.485L682.274 612.64L719.996 547.485M646.839 547.485L719.996 417.174M719.996 547.485H795.439L757.717 482.329M757.717 482.329L795.439 417.174H719.996" stroke="#E71C4A" stroke-width="2"/>
<path d="M532.531 610.354L567.966 546.342L605.688 610.354M532.531 610.354H453.659L491.38 675.509M532.531 610.354L605.688 740.665M491.38 675.509L453.659 740.665H532.531M491.38 675.509H643.409M532.531 740.665L567.966 805.82L605.688 740.665M532.531 740.665L605.688 610.354M605.688 740.665H681.131L643.409 675.509M643.409 675.509L681.131 610.354H605.688" stroke="#E71C4A" stroke-width="2"/>
<path d="M418.223 803.534L453.659 739.521L491.38 803.534M418.223 803.534H339.351L377.072 868.689M418.223 803.534L491.38 933.844M377.072 868.689L339.351 933.844H418.223M377.072 868.689H529.102M418.223 933.844L453.659 999L491.38 933.844M418.223 933.844L491.38 803.534M491.38 933.844H566.823L529.102 868.689M529.102 868.689L566.823 803.534H491.38" stroke="#E71C4A" stroke-width="2"/>
<path d="M649.125 30.8136L684.56 -33.1987L722.282 30.8136M649.125 30.8136H570.253L607.974 95.969M649.125 30.8136L722.282 161.124M607.974 95.969L570.253 161.124H649.125M607.974 95.969H760.003M649.125 161.124L684.56 226.28L722.282 161.124M649.125 161.124L722.282 30.8136M722.282 161.124H797.725L760.003 95.969M760.003 95.969L797.725 30.8136H722.282" stroke="#E71C4A" stroke-width="2"/>
<path d="M534.817 223.994L570.252 159.981L607.974 223.994M534.817 223.994H455.945L493.666 289.149M534.817 223.994L607.974 354.304M493.666 289.149L455.945 354.304H534.817M493.666 289.149H645.696M534.817 354.304L570.252 419.46L607.974 354.304M534.817 354.304L607.974 223.994M607.974 354.304H683.417L645.696 289.149M645.696 289.149L683.417 223.994H607.974" stroke="#E71C4A" stroke-width="2"/>
<path d="M420.509 417.174L455.945 353.161L493.666 417.174M420.509 417.174H341.637L379.359 482.329M420.509 417.174L493.666 547.485M379.359 482.329L341.637 547.485H420.509M379.359 482.329H531.388M420.509 547.485L455.945 612.64L493.666 547.485M420.509 547.485L493.666 417.174M493.666 547.485H569.109L531.388 482.329M531.388 482.329L569.109 417.174H493.666" stroke="#E71C4A" stroke-width="2"/>
<path d="M306.202 610.354L341.637 546.342L379.359 610.354M306.202 610.354H227.329L265.051 675.509M306.202 610.354L379.359 740.665M265.051 675.509L227.329 740.665H306.202M265.051 675.509H417.08M306.202 740.665L341.637 805.82L379.359 740.665M306.202 740.665L379.359 610.354M379.359 740.665H454.802L417.08 675.509M417.08 675.509L454.802 610.354H379.359" stroke="#E71C4A" stroke-width="2"/>
<path d="M191.894 803.534L227.329 739.521L265.051 803.534M191.894 803.534H113.022L150.743 868.689M191.894 803.534L265.051 933.844M150.743 868.689L113.022 933.844H191.894M150.743 868.689H302.772M191.894 933.844L227.329 999L265.051 933.844M191.894 933.844L265.051 803.534M265.051 933.844H340.494L302.772 868.689M302.772 868.689L340.494 803.534H265.051" stroke="#E71C4A" stroke-width="2"/>
<path d="M422.796 30.8136L458.231 -33.1987L495.952 30.8136M422.796 30.8136H343.923L381.645 95.969M422.796 30.8136L495.952 161.124M381.645 95.969L343.923 161.124H422.796M381.645 95.969H533.674M422.796 161.124L458.231 226.28L495.952 161.124M422.796 161.124L495.952 30.8136M495.952 161.124H571.396L533.674 95.969M533.674 95.969L571.396 30.8136H495.952" stroke="#E71C4A" stroke-width="2"/>
<path d="M308.488 223.994L343.923 159.981L381.645 223.994M308.488 223.994H229.616L267.337 289.149M308.488 223.994L381.645 354.304M267.337 289.149L229.616 354.304H308.488M267.337 289.149H419.366M308.488 354.304L343.923 419.46L381.645 354.304M308.488 354.304L381.645 223.994M381.645 354.304H457.088L419.366 289.149M419.366 289.149L457.088 223.994H381.645" stroke="#E71C4A" stroke-width="2"/>
<path d="M194.18 417.174L229.615 353.161L267.337 417.174M194.18 417.174H115.308L153.029 482.329M194.18 417.174L267.337 547.485M153.029 482.329L115.308 547.485H194.18M153.029 482.329H305.059M194.18 547.485L229.615 612.64L267.337 547.485M194.18 547.485L267.337 417.174M267.337 547.485H342.78L305.059 482.329M305.059 482.329L342.78 417.174H267.337" stroke="#E71C4A" stroke-width="2"/>
<path d="M79.8723 610.354L115.308 546.342L153.029 610.354M79.8723 610.354H1L38.7215 675.509M79.8723 610.354L153.029 740.665M38.7215 675.509L1 740.665H79.8723M38.7215 675.509H190.751M79.8723 740.665L115.308 805.82L153.029 740.665M79.8723 740.665L153.029 610.354M153.029 740.665H228.472L190.751 675.509M190.751 675.509L228.472 610.354H153.029" stroke="#E71C4A" stroke-width="2"/>
<path d="M196.466 30.8136L231.902 -33.1987L269.623 30.8136M196.466 30.8136H117.594L155.315 95.969M196.466 30.8136L269.623 161.124M155.315 95.969L117.594 161.124H196.466M155.315 95.969H307.345M196.466 161.124L231.902 226.28L269.623 161.124M196.466 161.124L269.623 30.8136M269.623 161.124H345.066L307.345 95.969M307.345 95.969L345.066 30.8136H269.623" stroke="#E71C4A" stroke-width="2"/>
<path d="M82.1586 223.994L117.594 159.981L155.316 223.994M82.1586 223.994H3.28625L41.0078 289.149M82.1586 223.994L155.316 354.304M41.0078 289.149L3.28625 354.304H82.1586M41.0078 289.149H193.037M82.1586 354.304L117.594 419.46L155.316 354.304M82.1586 354.304L155.316 223.994M155.316 354.304H230.759L193.037 289.149M193.037 289.149L230.759 223.994H155.316" stroke="#E71C4A" stroke-width="2"/>
</g>
<defs>
<filter id="filter0_d" x="-2.73444" y="-35.2145" width="1951.84" height="1056.26" filterUnits="userSpaceOnUse" color-interpolation-filters="sRGB">
<feFlood flood-opacity="0" result="BackgroundImageFix"/>
<feColorMatrix in="SourceAlpha" type="matrix" values="0 0 0 0 0 0 0 0 0 0 0 0 0 0 0 0 0 0 127 0"/>
<feOffset dx="8" dy="10"/>
<feGaussianBlur stdDeviation="5"/>
<feColorMatrix type="matrix" values="0 0 0 0 0.933333 0 0 0 0 0 0 0 0 0 0 0 0 0 0.52 0"/>
<feBlend mode="normal" in2="BackgroundImageFix" result="effect1_dropShadow"/>
<feBlend mode="normal" in="SourceGraphic" in2="effect1_dropShadow" result="shape"/>
</filter>
</defs>
</svg>
