<svg width="450" height="154" viewBox="0 0 450 154" fill="none" xmlns="http://www.w3.org/2000/svg">
<path d="M2.85321 153.896C2.2273 153.896 1.62707 153.648 1.18448 153.205C0.7419 152.763 0.493225 152.163 0.493225 151.538C0.496954 151.23 0.561136 150.925 0.682064 150.642C0.801578 150.356 0.969181 150.093 1.17764 149.864C1.50951 149.537 1.93093 149.315 2.38875 149.227C2.84656 149.139 3.32024 149.188 3.75002 149.369C4.04288 149.475 4.30884 149.644 4.52907 149.864C4.7493 150.084 4.91844 150.349 5.02443 150.642C5.14536 150.925 5.20947 151.23 5.2132 151.538C5.2132 152.163 4.96459 152.763 4.52201 153.205C4.07943 153.648 3.47912 153.896 2.85321 153.896Z" fill="white"/>
<path d="M12.836 130.316C12.5647 130.166 12.3258 129.964 12.1327 129.721C11.9396 129.479 11.7962 129.201 11.7107 128.903C11.6252 128.605 11.5993 128.294 11.6345 127.986C11.6697 127.678 11.7651 127.38 11.9156 127.109C12.2149 126.564 12.7176 126.159 13.3143 125.982C13.911 125.806 14.5534 125.872 15.1016 126.166C15.3749 126.314 15.6162 126.515 15.8117 126.756C16.0071 126.998 16.1529 127.275 16.2406 127.573C16.3283 127.871 16.3563 128.184 16.3228 128.493C16.2893 128.801 16.1951 129.101 16.0456 129.373C15.8418 129.745 15.5414 130.055 15.1759 130.271C14.8104 130.487 14.3933 130.6 13.9688 130.599C13.5742 130.594 13.1863 130.497 12.836 130.316ZM433.86 129.184C433.564 128.639 433.494 128 433.666 127.404C433.839 126.808 434.239 126.304 434.78 126.001C435.052 125.851 435.35 125.755 435.658 125.72C435.966 125.685 436.278 125.711 436.576 125.796C436.874 125.882 437.152 126.025 437.395 126.218C437.638 126.411 437.84 126.649 437.99 126.92C438.14 127.193 438.234 127.492 438.267 127.801C438.301 128.11 438.273 128.422 438.185 128.72C438.097 129.018 437.952 129.296 437.756 129.537C437.561 129.779 437.319 129.979 437.046 130.127C436.705 130.311 436.324 130.408 435.937 130.41C435.517 130.416 435.103 130.31 434.738 130.103C434.373 129.895 434.07 129.595 433.86 129.231V129.184ZM26.17 108.316C25.6575 107.959 25.3075 107.413 25.1969 106.799C25.0863 106.184 25.2241 105.551 25.58 105.038C25.9373 104.526 26.4833 104.177 27.0982 104.066C27.7132 103.955 28.3469 104.093 28.8604 104.449C29.373 104.806 29.7229 105.351 29.8335 105.966C29.9441 106.58 29.8064 107.213 29.4504 107.726C29.2336 108.039 28.9443 108.294 28.6074 108.471C28.2704 108.647 27.8957 108.74 27.5152 108.74C27.039 108.753 26.57 108.622 26.17 108.363V108.316ZM420.432 107.585C420.252 107.33 420.124 107.042 420.056 106.738C419.989 106.433 419.982 106.118 420.037 105.811C420.092 105.504 420.207 105.211 420.376 104.949C420.545 104.687 420.765 104.461 421.022 104.284C421.535 103.928 422.169 103.79 422.784 103.901C423.399 104.011 423.945 104.361 424.302 104.873C424.658 105.386 424.796 106.019 424.685 106.634C424.575 107.248 424.225 107.794 423.712 108.151C423.323 108.438 422.85 108.587 422.367 108.575C421.993 108.583 421.622 108.501 421.285 108.337C420.949 108.173 420.656 107.931 420.432 107.632V107.585ZM41.7696 87.872C41.2973 87.4622 41.0072 86.8819 40.9629 86.2584C40.9187 85.635 41.1239 85.0195 41.5336 84.5472C41.9438 84.0753 42.5246 83.7854 43.1486 83.7412C43.7725 83.697 44.3886 83.9021 44.8612 84.3114C45.3335 84.7212 45.6236 85.3016 45.6679 85.925C45.7121 86.5484 45.5069 87.1639 45.0972 87.6362C44.8782 87.892 44.607 88.0981 44.3017 88.2404C43.9964 88.3828 43.6641 88.4582 43.3272 88.4615C42.7535 88.4607 42.1998 88.2511 41.7696 87.872ZM404.761 87.4947C404.352 87.0224 404.146 86.407 404.19 85.7835C404.235 85.1601 404.525 84.5797 404.997 84.1699C405.47 83.7606 406.086 83.5555 406.71 83.5997C407.334 83.6439 407.915 83.9339 408.325 84.4058C408.737 84.875 408.947 85.4887 408.907 86.112C408.867 86.7354 408.581 87.3175 408.112 87.7305C407.682 88.1097 407.128 88.3192 406.555 88.32C406.218 88.3259 405.883 88.2595 405.574 88.1253C405.264 87.9911 404.987 87.7921 404.761 87.5419V87.4947ZM59.4696 69.2202C59.2559 68.9933 59.0894 68.7264 58.9796 68.4348C58.8698 68.1432 58.8189 67.8328 58.8299 67.5215C58.8409 67.2101 58.9135 66.904 59.0436 66.6209C59.1736 66.3378 59.3585 66.0832 59.5876 65.8719C60.0452 65.448 60.6522 65.2224 61.2758 65.2445C61.8994 65.2666 62.4888 65.5346 62.9152 65.9898C63.1289 66.2167 63.2954 66.4836 63.4052 66.7752C63.515 67.0668 63.5659 67.3772 63.5549 67.6886C63.5439 67.9999 63.4714 68.306 63.3413 68.5891C63.2113 68.8722 63.0263 69.1268 62.7972 69.3381C62.3583 69.7367 61.7854 69.9556 61.1924 69.9512C60.8739 69.9593 60.5571 69.9029 60.261 69.7854C59.9649 69.6679 59.6957 69.4917 59.4696 69.2674V69.2202ZM387.061 69.2202C386.606 68.7942 386.337 68.2053 386.315 67.5822C386.293 66.9591 386.519 66.3526 386.943 65.8954C387.155 65.6665 387.41 65.4818 387.693 65.3519C387.976 65.2219 388.283 65.1494 388.594 65.1384C388.906 65.1274 389.217 65.1783 389.508 65.288C389.8 65.3977 390.067 65.5641 390.294 65.7776C390.734 66.2194 390.981 66.817 390.981 67.44C390.981 68.0629 390.734 68.6605 390.294 69.1023C390.074 69.3394 389.808 69.5287 389.512 69.6585C389.215 69.7883 388.895 69.8559 388.572 69.8569C388.011 69.8383 387.476 69.621 387.061 69.2438V69.2202ZM79.034 52.502C78.6584 52.0017 78.4972 51.3728 78.5857 50.7537C78.6742 50.1346 79.0053 49.5761 79.506 49.2008C80.0068 48.8256 80.6362 48.6645 81.2558 48.7529C81.8754 48.8414 82.4345 49.1721 82.81 49.6724C82.996 49.9201 83.1312 50.202 83.2081 50.502C83.2851 50.802 83.3021 51.1142 83.2583 51.4207C83.2144 51.7272 83.1107 52.0222 82.9528 52.2886C82.7949 52.5551 82.5859 52.7878 82.338 52.9736C81.9295 53.2797 81.4327 53.4452 80.922 53.4452C80.5557 53.4452 80.1943 53.36 79.8666 53.1963C79.5389 53.0326 79.2538 52.7949 79.034 52.502ZM367.52 52.8557C367.027 52.4809 366.7 51.927 366.612 51.3136C366.523 50.7003 366.68 50.0768 367.048 49.5781C367.42 49.0809 367.973 48.7501 368.587 48.6574C369.201 48.5647 369.827 48.7176 370.329 49.0829C370.579 49.267 370.79 49.4984 370.95 49.764C371.11 50.0296 371.216 50.3242 371.262 50.6308C371.308 50.9375 371.293 51.2501 371.218 51.551C371.143 51.8518 371.009 52.135 370.824 52.3841C370.605 52.677 370.32 52.9147 369.992 53.0784C369.664 53.2421 369.303 53.3273 368.936 53.3273C368.434 53.3479 367.938 53.2075 367.52 52.9264V52.8557ZM100.274 38.0003C99.9528 37.4653 99.857 36.825 100.007 36.2195C100.158 35.614 100.542 35.0927 101.076 34.7698C101.344 34.6083 101.641 34.5014 101.95 34.4555C102.259 34.4095 102.575 34.4254 102.878 34.5022C103.18 34.5789 103.465 34.7151 103.715 34.9027C103.965 35.0904 104.175 35.3257 104.333 35.5952C104.652 36.133 104.745 36.7755 104.59 37.3813C104.435 37.9871 104.045 38.5066 103.507 38.8256C103.14 39.0355 102.726 39.1491 102.304 39.1557C101.901 39.1631 101.503 39.0673 101.147 38.8774C100.792 38.6875 100.492 38.4099 100.274 38.0711V38.0003ZM346.328 38.7313C345.789 38.4123 345.4 37.8927 345.245 37.2869C345.09 36.6811 345.182 36.0387 345.502 35.5008C345.821 34.9631 346.341 34.5741 346.947 34.4193C347.553 34.2645 348.197 34.3567 348.735 34.6755C349.004 34.8335 349.24 35.0434 349.428 35.2931C349.616 35.5428 349.752 35.8273 349.829 36.13C349.906 36.4327 349.921 36.7477 349.875 37.0566C349.829 37.3656 349.723 37.6623 349.561 37.9296C349.352 38.2816 349.055 38.5732 348.699 38.7758C348.343 38.9784 347.941 39.0849 347.531 39.085C347.113 39.0928 346.699 38.9955 346.328 38.802V38.7313ZM122.93 25.8566C122.799 25.5749 122.725 25.2702 122.713 24.9599C122.7 24.6496 122.749 24.3399 122.856 24.0485C122.963 23.7571 123.128 23.4898 123.339 23.2619C123.55 23.034 123.804 22.85 124.086 22.7205C124.368 22.5897 124.673 22.5159 124.984 22.5032C125.294 22.4905 125.604 22.5392 125.896 22.6466C126.188 22.754 126.455 22.9178 126.683 23.1288C126.911 23.3397 127.096 23.5936 127.225 23.8759C127.355 24.159 127.428 24.4651 127.439 24.7764C127.45 25.0877 127.399 25.3982 127.29 25.6898C127.18 25.9814 127.013 26.2484 126.8 26.4753C126.586 26.7023 126.33 26.8847 126.045 27.012C125.741 27.1504 125.412 27.2227 125.078 27.2243C124.634 27.2317 124.197 27.114 123.817 26.8846C123.437 26.6552 123.13 26.3234 122.93 25.9273V25.8566ZM323.742 26.9177C323.174 26.6604 322.73 26.1883 322.509 25.605C322.288 25.0216 322.307 24.3744 322.562 23.8052C322.69 23.5208 322.872 23.2646 323.1 23.0512C323.327 22.8377 323.594 22.6714 323.886 22.5618C324.178 22.4522 324.488 22.4014 324.8 22.4125C325.112 22.4235 325.418 22.4961 325.701 22.6262C325.984 22.7557 326.238 22.9397 326.449 23.1676C326.66 23.3955 326.824 23.6628 326.932 23.9542C327.039 24.2456 327.088 24.5553 327.075 24.8656C327.062 25.1759 326.989 25.4806 326.858 25.7623C326.668 26.1716 326.365 26.518 325.984 26.7604C325.604 27.0028 325.161 27.1311 324.71 27.1299C324.381 27.1468 324.052 27.0987 323.742 26.9884V26.9177ZM146.742 16.1888C146.549 15.5947 146.599 14.9481 146.882 14.391C147.166 13.834 147.658 13.412 148.253 13.2177C148.844 13.0233 149.489 13.0703 150.046 13.3486C150.603 13.6268 151.027 14.1138 151.226 14.7033C151.421 15.2943 151.374 15.9383 151.096 16.4948C150.817 17.0513 150.33 17.4753 149.74 17.6743C149.497 17.7595 149.241 17.7994 148.984 17.7923C148.498 17.7987 148.022 17.6549 147.621 17.3805C147.219 17.1062 146.913 16.7147 146.742 16.2596V16.1888ZM300.142 17.6036C299.552 17.4046 299.065 16.9806 298.787 16.4241C298.508 15.8675 298.461 15.2236 298.656 14.6325C298.752 14.3358 298.906 14.0611 299.109 13.8242C299.312 13.5874 299.56 13.3932 299.839 13.2528C300.118 13.1124 300.422 13.0288 300.733 13.0066C301.044 12.9843 301.357 13.0241 301.653 13.1234C301.948 13.2219 302.22 13.3775 302.455 13.5815C302.689 13.7855 302.881 14.0338 303.019 14.312C303.157 14.5903 303.239 14.8931 303.26 15.203C303.28 15.513 303.24 15.824 303.14 16.1181C302.981 16.5864 302.68 16.9932 302.277 17.2809C301.875 17.5687 301.392 17.7228 300.898 17.7215C300.614 17.7674 300.324 17.7513 300.048 17.6743L300.142 17.6036ZM171.57 9.16196C171.504 8.85845 171.499 8.54497 171.554 8.23947C171.61 7.93396 171.726 7.64246 171.895 7.38173C172.064 7.12101 172.282 6.89616 172.538 6.72013C172.794 6.5441 173.083 6.42032 173.387 6.35594C173.997 6.23012 174.632 6.3504 175.154 6.69052C175.675 7.03064 176.041 7.56302 176.172 8.17161C176.305 8.78127 176.191 9.41899 175.855 9.94497C175.519 10.4709 174.988 10.8423 174.378 10.9776H173.882C173.342 11.0068 172.807 10.8494 172.369 10.5317C171.931 10.214 171.615 9.75533 171.475 9.2327L171.57 9.16196ZM275.551 10.9069C275.247 10.8425 274.959 10.7187 274.703 10.5427C274.447 10.3667 274.228 10.1418 274.059 9.8811C273.89 9.62037 273.775 9.32891 273.719 9.0234C273.663 8.7179 273.668 8.40438 273.734 8.10087C273.798 7.79707 273.922 7.50898 274.099 7.25314C274.275 6.9973 274.5 6.77877 274.761 6.61007C275.022 6.44136 275.313 6.3258 275.619 6.27005C275.925 6.21431 276.239 6.21945 276.542 6.2852C276.846 6.34959 277.135 6.47336 277.391 6.64939C277.647 6.82543 277.866 7.05027 278.034 7.311C278.203 7.57173 278.319 7.86322 278.375 8.16873C278.431 8.47424 278.425 8.78772 278.36 9.09123C278.244 9.62751 277.946 10.1069 277.515 10.4469C277.084 10.7869 276.548 10.9663 276 10.9541L275.551 10.9069ZM196.916 4.82325C196.883 4.51512 196.912 4.20357 197 3.9064C197.087 3.60924 197.233 3.33227 197.428 3.09138C197.623 2.85049 197.864 2.65039 198.136 2.50249C198.409 2.35459 198.708 2.26179 199.016 2.22944C199.325 2.19676 199.637 2.22514 199.934 2.31295C200.231 2.40075 200.509 2.54628 200.75 2.74118C200.991 2.93609 201.191 3.17655 201.339 3.44884C201.487 3.72114 201.58 4.01992 201.612 4.32809C201.645 4.63623 201.617 4.94778 201.529 5.24494C201.441 5.54211 201.295 5.81904 201.1 6.05993C200.905 6.30082 200.665 6.50096 200.392 6.64885C200.119 6.79675 199.82 6.88951 199.512 6.92187H199.276C198.687 6.95112 198.109 6.75924 197.655 6.38397C197.201 6.00869 196.903 5.47718 196.822 4.89399L196.916 4.82325ZM250.394 6.8747C250.085 6.84234 249.786 6.74958 249.514 6.60168C249.241 6.45379 249 6.25365 248.805 6.01276C248.61 5.77187 248.465 5.49494 248.377 5.19777C248.289 4.90061 248.261 4.58906 248.293 4.28092C248.326 3.97275 248.418 3.67397 248.566 3.40167C248.714 3.12938 248.915 2.88892 249.156 2.69401C249.397 2.49911 249.674 2.35358 249.972 2.26578C250.269 2.17797 250.581 2.14962 250.889 2.1823C251.508 2.24781 252.075 2.55451 252.468 3.03579C252.862 3.51707 253.049 4.13402 252.99 4.75252C252.931 5.33617 252.657 5.87703 252.22 6.26944C251.784 6.66186 251.217 6.87764 250.63 6.8747H250.37H250.394ZM222.593 3.19623C222.593 2.57085 222.841 1.97108 223.284 1.52887C223.727 1.08666 224.327 0.838226 224.953 0.838226C225.579 0.838226 226.179 1.08666 226.622 1.52887C227.064 1.97108 227.313 2.57085 227.313 3.19623C227.313 3.82161 227.064 4.42138 226.622 4.86359C226.179 5.3058 225.579 5.55423 224.953 5.55423C224.641 5.56683 224.33 5.51751 224.037 5.40908C223.744 5.30065 223.476 5.13529 223.248 4.92256C223.019 4.70983 222.836 4.45396 222.707 4.16978C222.578 3.8856 222.508 3.57872 222.498 3.26696L222.593 3.19623Z" fill="white"/>
<path d="M447.147 153.896C446.76 153.894 446.379 153.796 446.039 153.613C445.698 153.429 445.408 153.164 445.194 152.842C444.98 152.519 444.849 152.149 444.811 151.764C444.774 151.379 444.832 150.991 444.981 150.634C445.129 150.277 445.364 149.961 445.663 149.716C445.962 149.47 446.317 149.302 446.696 149.226C447.076 149.15 447.468 149.168 447.839 149.28C448.21 149.391 448.548 149.591 448.822 149.864C449.041 150.085 449.21 150.35 449.318 150.642C449.439 150.925 449.503 151.23 449.507 151.538C449.509 151.848 449.449 152.156 449.332 152.443C449.214 152.731 449.041 152.992 448.822 153.212C448.37 153.643 447.772 153.887 447.147 153.896Z" fill="white"/>
</svg>
