<svg width="1642" height="963" viewBox="0 0 1642 963" fill="none" xmlns="http://www.w3.org/2000/svg">
<path opacity="0.2" d="M0 123.729L43.7812 148.992V233.591L448.104 466.884L423.249 481.066L214.881 360.951H214.666H63.0756L0 324.514V326.509L62.3997 362.516H62.6148H214.205L421.528 482.233L399.622 494.849L202.438 381.026H202.254H28.235L0 364.604V366.599L27.6513 382.53H27.8356H201.793L230.95 399.383H0V401.255H233.93L307.482 443.678L278.602 460.346H227.355L179.334 487.973C177.741 487.35 176.035 487.067 174.327 487.141C172.618 487.215 170.943 487.645 169.41 488.402C168.763 488.636 168.203 489.064 167.808 489.627C167.413 490.19 167.2 490.861 167.2 491.549C167.2 492.237 167.413 492.908 167.808 493.471C168.203 494.034 168.763 494.461 169.41 494.695C171.097 495.543 172.96 495.984 174.848 495.984C176.737 495.984 178.599 495.543 180.286 494.695C183.021 493.13 183.359 490.705 181.085 488.955L227.816 462.003H275.591L163.88 526.466H60.5563L3.07236 493.345C5.22302 491.626 5.00795 489.201 2.27355 487.635C1.59433 487.262 0.872109 486.974 0.122895 486.776V494.695C0.522302 494.695 0.952433 494.511 1.35184 494.358L60.034 528.124H60.2183H164.341L309.203 444.568L370.65 480.084H336.792L309.418 495.862C307.81 495.217 306.083 494.919 304.352 494.988C302.62 495.056 300.923 495.49 299.371 496.261C298.761 496.51 298.238 496.934 297.87 497.481C297.503 498.028 297.306 498.672 297.306 499.33C297.306 499.989 297.503 500.633 297.87 501.18C298.238 501.726 298.761 502.151 299.371 502.4C301.054 503.262 302.918 503.711 304.809 503.711C306.7 503.711 308.564 503.262 310.247 502.4C312.92 500.865 313.32 498.471 311.138 496.752L337.253 481.68H373.753L397.902 495.616L347.638 524.594L346.347 525.361L362.508 534.57L273.44 586.14H243.884L208.46 565.696C210.641 563.977 210.395 561.521 207.692 559.956C206.005 559.108 204.142 558.667 202.254 558.667C200.365 558.667 198.503 559.108 196.816 559.956C196.154 560.175 195.578 560.597 195.17 561.162C194.762 561.727 194.543 562.406 194.543 563.102C194.543 563.799 194.762 564.478 195.17 565.042C195.578 565.607 196.154 566.029 196.816 566.249C198.349 567.006 200.023 567.436 201.732 567.51C203.441 567.584 205.146 567.301 206.739 566.678L243.239 587.736H243.423H274.147L338.667 550.44V584.574L278.049 619.66C276.456 619.038 274.75 618.755 273.042 618.829C271.333 618.903 269.658 619.333 268.125 620.09C267.515 620.339 266.992 620.764 266.624 621.311C266.257 621.857 266.06 622.501 266.06 623.16C266.06 623.819 266.257 624.462 266.624 625.009C266.992 625.556 267.515 625.981 268.125 626.229C269.812 627.077 271.675 627.519 273.563 627.519C275.452 627.519 277.314 627.077 279.001 626.229C281.705 624.664 282.074 622.239 279.769 620.489L340.356 585.557V549.581L364.229 535.828L448.104 584.206L409.177 606.645H358.729L278.848 652.69H218.414L134.232 604.128C136.413 602.378 136.167 599.953 133.463 598.388C131.776 597.54 129.914 597.099 128.025 597.099C126.137 597.099 124.275 597.54 122.587 598.388C121.977 598.637 121.454 599.062 121.087 599.608C120.719 600.155 120.522 600.799 120.522 601.457C120.522 602.116 120.719 602.76 121.087 603.307C121.454 603.853 121.977 604.278 122.587 604.527C124.12 605.285 125.795 605.714 127.504 605.788C129.213 605.862 130.918 605.579 132.511 604.957L217.738 654.071H217.953H279.401L359.282 608.026H406.289L172.452 743.214H7.2815L0 747.419V749.414L7.74235 745.055H172.913L449.825 585.434L481.255 603.545L201.67 764.824L201.24 765.069V861.456L105.566 916.71C103.973 916.088 102.268 915.804 100.559 915.878C98.8503 915.952 97.1758 916.382 95.6427 917.14C95.0322 917.388 94.5097 917.813 94.142 918.36C93.7742 918.907 93.5778 919.55 93.5778 920.209C93.5778 920.868 93.7742 921.512 94.142 922.058C94.5097 922.605 95.0322 923.03 95.6427 923.279C97.3299 924.126 99.1922 924.568 101.081 924.568C102.969 924.568 104.832 924.126 106.519 923.279C109.222 921.713 109.591 919.288 107.287 917.539L202.96 862.285V765.898L482.975 604.343L516.157 623.375L352.124 717.981L351.693 718.227V800.953L632.477 963H645.196C643.665 962.237 641.992 961.803 640.283 961.723C638.574 961.644 636.868 961.922 635.272 962.54L427.857 842.977H490.134L601.845 907.439C599.664 909.189 599.91 911.614 602.613 913.18C604.3 914.027 606.163 914.469 608.051 914.469C609.94 914.469 611.802 914.027 613.489 913.18C614.1 912.931 614.622 912.506 614.99 911.959C615.358 911.413 615.554 910.769 615.554 910.11C615.554 909.451 615.358 908.807 614.99 908.261C614.622 907.714 614.1 907.289 613.489 907.04C611.958 906.278 610.285 905.843 608.576 905.764C606.867 905.684 605.161 905.962 603.566 906.58L490.779 841.534H490.595H424.877L353.322 799.941V719.209L485.433 643.051V684.092L403.862 731.119V772.682C402.258 772.735 400.689 773.166 399.284 773.941C396.212 775.66 396.212 778.453 399.284 780.08C400.972 780.928 402.834 781.369 404.722 781.369C406.611 781.369 408.473 780.928 410.16 780.08C410.771 779.831 411.293 779.406 411.661 778.859C412.029 778.313 412.225 777.669 412.225 777.01C412.225 776.352 412.029 775.708 411.661 775.161C411.293 774.614 410.771 774.189 410.16 773.941C408.748 773.157 407.167 772.725 405.552 772.682V732.132L487.123 685.074V642.099L517.847 624.388L551.151 643.757L551.581 644.003L572.166 632.123V721.726L500.611 763.013C499.018 762.391 497.312 762.107 495.604 762.181C493.895 762.255 492.22 762.685 490.687 763.442C490.025 763.662 489.45 764.084 489.042 764.649C488.634 765.214 488.414 765.892 488.414 766.589C488.414 767.285 488.634 767.964 489.042 768.529C489.45 769.094 490.025 769.516 490.687 769.735C492.374 770.583 494.237 771.024 496.125 771.024C498.014 771.024 499.876 770.583 501.563 769.735C504.267 768.17 504.636 765.745 502.331 763.995L573.887 722.708V686.18L627.376 716.876V751.563L510.627 818.85C509.032 818.232 507.325 817.954 505.616 818.033C503.907 818.113 502.234 818.547 500.703 819.31C500.092 819.559 499.57 819.984 499.202 820.53C498.835 821.077 498.638 821.721 498.638 822.38C498.638 823.038 498.835 823.682 499.202 824.229C499.57 824.776 500.092 825.201 500.703 825.449C502.386 826.311 504.25 826.761 506.141 826.761C508.032 826.761 509.896 826.311 511.579 825.449C514.283 823.884 514.652 821.459 512.378 819.74L628.605 752.668L629.036 752.422V715.924L573.733 684.092V631.049L603.013 614.166L627.776 628.44V660.886L665.289 682.527C663.108 684.276 663.354 686.701 666.058 688.267C667.745 689.115 669.607 689.556 671.496 689.556C673.384 689.556 675.247 689.115 676.934 688.267C677.595 688.047 678.171 687.625 678.579 687.061C678.987 686.496 679.206 685.817 679.206 685.121C679.206 684.424 678.987 683.745 678.579 683.18C678.171 682.616 677.595 682.194 676.934 681.974C675.401 681.217 673.726 680.787 672.017 680.713C670.308 680.639 668.603 680.922 667.01 681.544L629.496 659.903V629.453L711.344 676.664V747.757L588.327 818.727L587.897 818.972V845.77L657.486 886.044C655.304 887.763 655.55 890.188 658.254 891.754C659.937 892.616 661.801 893.065 663.692 893.065C665.583 893.065 667.447 892.616 669.13 891.754C669.74 891.505 670.263 891.08 670.631 890.533C670.998 889.986 671.195 889.343 671.195 888.684C671.195 888.025 670.998 887.381 670.631 886.835C670.263 886.288 669.74 885.863 669.13 885.614C667.599 884.852 665.925 884.417 664.217 884.338C662.508 884.258 660.801 884.536 659.206 885.154L589.556 844.972V820.2L712.788 749.015L713.218 748.77V675.651L604.887 613.061L626.762 600.445L767.261 681.483V814.828L808.277 838.495V961.097L811.35 962.908H814.791L809.936 960.084V839.6L1023.96 963H1027.4L768.982 813.938V680.593L628.483 599.554L653.369 585.219L790.12 664.109L789.689 664.846L919.835 739.929V756.321L946.257 771.669V818.604L1140.52 930.677C1138.34 932.426 1138.59 934.851 1141.29 936.417C1142.98 937.265 1144.84 937.706 1146.73 937.706C1148.62 937.706 1150.48 937.265 1152.17 936.417C1152.83 936.197 1153.4 935.775 1153.81 935.211C1154.22 934.646 1154.44 933.967 1154.44 933.271C1154.44 932.574 1154.22 931.895 1153.81 931.33C1153.4 930.766 1152.83 930.344 1152.17 930.124C1150.63 929.366 1148.96 928.937 1147.25 928.863C1145.54 928.789 1143.84 929.072 1142.24 929.694L947.978 817.622V772.682L981.589 792.082C979.408 793.801 979.654 796.226 982.357 797.792C984.04 798.654 985.904 799.103 987.795 799.103C989.687 799.103 991.551 798.654 993.233 797.792C993.844 797.543 994.366 797.118 994.734 796.571C995.102 796.025 995.298 795.381 995.298 794.722C995.298 794.063 995.102 793.42 994.734 792.873C994.366 792.326 993.844 791.901 993.233 791.652C991.703 790.89 990.029 790.455 988.32 790.376C986.611 790.296 984.905 790.575 983.31 791.192L921.709 755.339V738.916L792.67 664.477H852.611L1110.69 813.355V852.309L1212.97 911.276C1210.79 913.026 1211.03 915.451 1213.74 917.017C1215.42 917.864 1217.29 918.306 1219.18 918.306C1221.06 918.306 1222.93 917.864 1224.61 917.017C1225.22 916.768 1225.75 916.343 1226.11 915.796C1226.48 915.25 1226.68 914.606 1226.68 913.947C1226.68 913.288 1226.48 912.645 1226.11 912.098C1225.75 911.551 1225.22 911.126 1224.61 910.877C1223.08 910.115 1221.41 909.68 1219.7 909.601C1217.99 909.521 1216.28 909.799 1214.69 910.417L1112.2 851.296V812.373L855.807 664.477H1030.47L1240.41 785.544H1240.59H1486.1L1630.01 702.664C1631.61 703.281 1633.31 703.559 1635.02 703.48C1636.73 703.401 1638.4 702.966 1639.94 702.203C1640.55 701.954 1641.07 701.529 1641.44 700.983C1641.8 700.436 1642 699.792 1642 699.133C1642 698.475 1641.8 697.831 1641.44 697.284C1641.07 696.737 1640.55 696.313 1639.94 696.064C1638.25 695.216 1636.39 694.775 1634.5 694.775C1632.61 694.775 1630.75 695.216 1629.06 696.064C1626.36 697.629 1625.99 700.054 1628.29 701.804L1485.64 784.07H1241.05L1031.15 662.973H1030.93H791.287L655.089 584.206L680.836 569.349L779.52 626.291H779.735H1057.48L1252.2 738.609C1250.02 740.328 1250.27 742.784 1252.97 744.319C1254.65 745.181 1256.52 745.63 1258.41 745.63C1260.3 745.63 1262.16 745.181 1263.85 744.319C1264.46 744.07 1264.98 743.645 1265.35 743.098C1265.72 742.551 1265.91 741.908 1265.91 741.249C1265.91 740.59 1265.72 739.946 1265.35 739.4C1264.98 738.853 1264.46 738.428 1263.85 738.179C1262.31 737.422 1260.64 736.992 1258.93 736.918C1257.22 736.844 1255.52 737.127 1253.92 737.75L1058.15 624.787H1057.94H852.489L906.347 593.63H1051.67C1052.07 594.613 1052.81 595.419 1053.76 595.901C1055.44 596.763 1057.31 597.213 1059.2 597.213C1061.09 597.213 1062.95 596.763 1064.64 595.901C1065.25 595.653 1065.77 595.228 1066.14 594.681C1066.5 594.134 1066.7 593.49 1066.7 592.832C1066.7 592.173 1066.5 591.529 1066.14 590.982C1065.77 590.436 1065.25 590.011 1064.64 589.762C1062.95 588.9 1061.09 588.451 1059.2 588.451C1057.31 588.451 1055.44 588.9 1053.76 589.762C1052.81 590.253 1052.06 591.055 1051.64 592.034H905.855L849.047 624.817H780.196L682.556 568.49L705.23 555.413L791.625 605.233H791.809H826.619L897.284 564.499H1110.23L1243.57 487.604C1245.15 488.195 1246.84 488.453 1248.52 488.363C1250.21 488.274 1251.86 487.838 1253.37 487.082C1253.98 486.834 1254.5 486.409 1254.87 485.862C1255.24 485.315 1255.44 484.672 1255.44 484.013C1255.44 483.354 1255.24 482.71 1254.87 482.164C1254.5 481.617 1253.98 481.192 1253.37 480.943C1251.69 480.081 1249.82 479.632 1247.93 479.632C1246.04 479.632 1244.18 480.081 1242.49 480.943C1239.73 482.509 1239.42 484.995 1241.82 486.745L1109.71 562.903H896.792L826.128 603.637H792.332L729.563 567.323H760.901L791.318 584.881H791.533H815.282L868.158 554.4C869.731 554.982 871.406 555.235 873.081 555.146C874.756 555.056 876.395 554.624 877.897 553.878C878.559 553.659 879.134 553.236 879.542 552.672C879.95 552.107 880.17 551.428 880.17 550.732C880.17 550.035 879.95 549.356 879.542 548.791C879.134 548.227 878.559 547.805 877.897 547.585C876.21 546.738 874.347 546.296 872.459 546.296C870.57 546.296 868.708 546.738 867.021 547.585C864.256 549.181 863.948 551.668 866.376 553.418L814.821 583.162H791.994L761.577 565.635H761.362H726.583L706.951 554.338L738.873 535.921H785.91L844.285 502.154C845.88 502.772 847.587 503.05 849.296 502.971C851.005 502.891 852.678 502.457 854.209 501.694C854.82 501.445 855.342 501.02 855.71 500.474C856.077 499.927 856.274 499.283 856.274 498.624C856.274 497.966 856.077 497.322 855.71 496.775C855.342 496.228 854.82 495.804 854.209 495.555C852.526 494.693 850.662 494.243 848.771 494.243C846.88 494.243 845.016 494.693 843.333 495.555C840.629 497.12 840.26 499.545 842.565 501.264L785.45 534.171H741.853L755.555 526.251L756.846 525.514L733.527 512.069L796.633 475.663H862.965L932.954 516.029C930.772 517.779 931.018 520.204 933.722 521.77C935.409 522.617 937.271 523.059 939.16 523.059C941.048 523.059 942.911 522.617 944.598 521.77C945.208 521.521 945.731 521.096 946.099 520.549C946.466 520.002 946.663 519.359 946.663 518.7C946.663 518.041 946.466 517.397 946.099 516.851C945.731 516.304 945.208 515.879 944.598 515.63C943.065 514.872 941.39 514.443 939.681 514.369C937.973 514.295 936.267 514.578 934.674 515.2L898.635 494.388H1029.52L1067.15 472.686H1142.12C1142.54 473.674 1143.29 474.487 1144.24 474.988C1145.93 475.836 1147.79 476.277 1149.68 476.277C1151.57 476.277 1153.43 475.836 1155.12 474.988C1155.78 474.769 1156.35 474.347 1156.76 473.782C1157.17 473.217 1157.39 472.538 1157.39 471.842C1157.39 471.145 1157.17 470.466 1156.76 469.902C1156.35 469.337 1155.78 468.915 1155.12 468.695C1153.43 467.848 1151.57 467.406 1149.68 467.406C1147.79 467.406 1145.93 467.848 1144.24 468.695C1143.29 469.186 1142.54 469.989 1142.12 470.967H1066.66L1029.06 492.669H895.655L863.641 474.251H863.426H799.613L825.759 459.149H975.905L1014.65 436.802H1129.55L1184.49 405.123C1186.08 405.741 1187.79 406.019 1189.5 405.939C1191.21 405.86 1192.88 405.425 1194.41 404.663C1195.02 404.414 1195.54 403.989 1195.91 403.442C1196.28 402.896 1196.48 402.252 1196.48 401.593C1196.48 400.934 1196.28 400.29 1195.91 399.744C1195.54 399.197 1195.02 398.772 1194.41 398.523C1192.73 397.661 1190.86 397.212 1188.97 397.212C1187.08 397.212 1185.22 397.661 1183.54 398.523C1180.83 400.089 1180.46 402.514 1182.77 404.233L1129.09 434.776H1017.63L1146.67 360.337H1241.42L1281.36 337.345C1282.95 337.963 1284.66 338.241 1286.37 338.162C1288.08 338.082 1289.75 337.647 1291.28 336.885C1291.89 336.636 1292.42 336.211 1292.78 335.664C1293.15 335.118 1293.35 334.474 1293.35 333.815C1293.35 333.156 1293.15 332.513 1292.78 331.966C1292.42 331.419 1291.89 330.994 1291.28 330.746C1289.6 329.898 1287.73 329.456 1285.85 329.456C1283.96 329.456 1282.09 329.898 1280.41 330.746C1277.7 332.311 1277.33 334.736 1279.64 336.486L1241.02 358.741H1146.21L975.444 457.123H825.298L731.806 511.056L688.209 485.916L796.971 423.173H914.059L1046.85 346.585C1048.47 347.202 1050.2 347.468 1051.93 347.368C1053.66 347.267 1055.35 346.802 1056.89 346.002C1057.5 345.753 1058.03 345.328 1058.39 344.781C1058.76 344.235 1058.96 343.591 1058.96 342.932C1058.96 342.273 1058.76 341.63 1058.39 341.083C1058.03 340.536 1057.5 340.111 1056.89 339.862C1055.21 339 1053.35 338.551 1051.45 338.551C1049.56 338.551 1047.7 339 1046.02 339.862C1043.31 341.428 1042.94 343.853 1045.25 345.572L913.721 421.454H800.043L943.215 338.819L943.646 338.573V272.33L1157.91 148.716C1159.51 149.333 1161.21 149.611 1162.92 149.532C1164.63 149.453 1166.3 149.018 1167.84 148.255C1168.45 148.007 1168.97 147.582 1169.34 147.035C1169.7 146.488 1169.9 145.844 1169.9 145.186C1169.9 144.527 1169.7 143.883 1169.34 143.336C1168.97 142.79 1168.45 142.365 1167.84 142.116C1166.15 141.268 1164.29 140.827 1162.4 140.827C1160.51 140.827 1158.65 141.268 1156.96 142.116C1154.26 143.682 1153.89 146.107 1156.19 147.856L942.355 271.195L941.925 271.44V337.806L686.458 485.149L648.975 463.661L802.071 375.348L802.501 375.071V241.388L938.853 162.775C940.448 163.392 942.154 163.67 943.863 163.591C945.572 163.512 947.245 163.077 948.776 162.314C949.387 162.065 949.909 161.641 950.277 161.094C950.645 160.547 950.841 159.903 950.841 159.245C950.841 158.586 950.645 157.942 950.277 157.395C949.909 156.849 949.387 156.424 948.776 156.175C947.093 155.313 945.229 154.864 943.338 154.864C941.447 154.864 939.583 155.313 937.9 156.175C935.197 157.741 934.828 160.166 937.132 161.885L801.211 240.283L800.781 240.529V373.629L647.163 462.188L624.028 448.835L737.705 383.236V227.053L792.67 195.589V136.744L840.936 108.872C842.529 109.494 844.235 109.777 845.944 109.703C847.653 109.629 849.327 109.2 850.86 108.442C851.471 108.193 851.993 107.768 852.361 107.222C852.729 106.675 852.925 106.031 852.925 105.372C852.925 104.714 852.729 104.07 852.361 103.523C851.993 102.976 851.471 102.552 850.86 102.303C849.173 101.455 847.311 101.014 845.422 101.014C843.534 101.014 841.671 101.455 839.984 102.303C837.28 103.868 836.912 106.293 839.216 108.043L790.918 135.885V194.668L736.23 226.224V382.5L622.553 448.129L591.338 430.141L678.255 379.768V118.664H676.534V271.624L632.907 246.453V160.687C634.512 160.643 636.083 160.211 637.485 159.429C638.095 159.18 638.617 158.755 638.985 158.208C639.353 157.662 639.549 157.018 639.549 156.359C639.549 155.7 639.353 155.057 638.985 154.51C638.617 153.963 638.095 153.538 637.485 153.29C635.797 152.442 633.935 152 632.047 152C630.158 152 628.296 152.442 626.608 153.29C625.998 153.538 625.475 153.963 625.108 154.51C624.74 155.057 624.544 155.7 624.544 156.359C624.544 157.018 624.74 157.662 625.108 158.208C625.475 158.755 625.998 159.18 626.608 159.429C628.014 160.203 629.582 160.635 631.186 160.687V247.435L676.565 273.589V319.633L619.143 286.512C621.14 284.793 620.832 282.46 618.19 280.925C616.507 280.063 614.643 279.614 612.752 279.614C610.861 279.614 608.997 280.063 607.314 280.925C606.703 281.174 606.181 281.599 605.813 282.146C605.445 282.692 605.249 283.336 605.249 283.995C605.249 284.654 605.445 285.297 605.813 285.844C606.181 286.391 606.703 286.816 607.314 287.065C608.878 287.854 610.595 288.294 612.346 288.352C614.097 288.41 615.84 288.086 617.453 287.402L676.565 321.506V378.571L589.494 428.882L561.689 412.859L603.996 388.455V352.601L593.304 346.462V328.044L517.079 284.148V253.084L455.017 217.292C457.168 215.542 456.922 213.117 454.218 211.551C452.531 210.704 450.669 210.262 448.78 210.262C446.892 210.262 445.029 210.704 443.342 211.551C442.732 211.8 442.209 212.225 441.841 212.772C441.474 213.318 441.277 213.962 441.277 214.621C441.277 215.28 441.474 215.924 441.841 216.47C442.209 217.017 442.732 217.442 443.342 217.691C444.873 218.453 446.546 218.888 448.255 218.967C449.964 219.047 451.671 218.769 453.266 218.151L515.358 253.943V285.008L591.583 328.996V345.326L463.466 271.409C465.463 269.69 465.156 267.327 462.513 265.792C460.826 264.944 458.964 264.503 457.075 264.503C455.187 264.503 453.325 264.944 451.637 265.792C450.976 266.011 450.4 266.433 449.992 266.998C449.584 267.563 449.365 268.242 449.365 268.938C449.365 269.635 449.584 270.314 449.992 270.878C450.4 271.443 450.976 271.865 451.637 272.085C453.206 272.859 454.922 273.289 456.67 273.348C458.419 273.406 460.159 273.09 461.776 272.422L564.516 331.697H513.085L453.972 297.593C456.123 295.844 455.908 293.419 453.174 291.853C451.486 291.006 449.624 290.564 447.735 290.564C445.847 290.564 443.985 291.006 442.297 291.853C441.687 292.102 441.164 292.527 440.797 293.074C440.429 293.62 440.232 294.264 440.232 294.923C440.232 295.582 440.429 296.225 440.797 296.772C441.164 297.319 441.687 297.744 442.297 297.992C443.831 298.75 445.505 299.18 447.214 299.254C448.923 299.328 450.628 299.045 452.221 298.422L512.593 333.263H567.435L602.183 353.584V387.565L559.877 411.938L552.011 407.395L551.581 407.149L540.736 413.534L363.123 311.069H362.908H314.426C314.025 310.086 313.283 309.28 312.336 308.798C310.649 307.95 308.787 307.509 306.898 307.509C305.01 307.509 303.147 307.95 301.46 308.798C300.85 309.046 300.327 309.471 299.96 310.018C299.592 310.565 299.395 311.209 299.395 311.867C299.395 312.526 299.592 313.17 299.96 313.717C300.327 314.263 300.85 314.688 301.46 314.937C303.147 315.785 305.01 316.226 306.898 316.226C308.787 316.226 310.649 315.785 312.336 314.937C313.292 314.452 314.036 313.633 314.426 312.635H362.539L539.077 414.485L512.101 430.049L364.628 344.927C366.809 343.178 366.564 340.753 363.829 339.187C362.147 338.34 360.29 337.898 358.406 337.898C356.523 337.898 354.666 338.34 352.984 339.187C352.322 339.407 351.747 339.829 351.339 340.393C350.931 340.958 350.711 341.637 350.711 342.333C350.711 343.03 350.931 343.709 351.339 344.274C351.747 344.838 352.322 345.26 352.984 345.48C354.517 346.238 356.191 346.667 357.9 346.741C359.609 346.815 361.315 346.532 362.908 345.91L510.381 431.062L482.422 447.177L273.717 326.786V226.071L372.032 169.313H462.544L534.315 128.057C535.91 128.675 537.616 128.953 539.325 128.873C541.034 128.794 542.707 128.359 544.238 127.597C544.849 127.348 545.371 126.923 545.739 126.376C546.107 125.829 546.303 125.186 546.303 124.527C546.303 123.868 546.107 123.224 545.739 122.678C545.371 122.131 544.849 121.706 544.238 121.457C542.561 120.596 540.702 120.146 538.816 120.146C536.929 120.146 535.07 120.596 533.393 121.457C530.659 123.023 530.321 125.448 532.594 127.167L462.145 167.809H375.013L494.65 98.6806L495.081 98.4043V8.70934C496.68 8.62781 498.242 8.19828 499.658 7.45078C500.269 7.20197 500.791 6.77711 501.159 6.23039C501.527 5.68366 501.723 5.03986 501.723 4.38114C501.723 3.72241 501.527 3.07861 501.159 2.53188C500.791 1.98516 500.269 1.5603 499.658 1.31149C497.975 0.449539 496.111 0 494.22 0C492.329 0 490.465 0.449539 488.782 1.31149C488.172 1.5603 487.649 1.98516 487.282 2.53188C486.914 3.07861 486.717 3.72241 486.717 4.38114C486.717 5.03986 486.914 5.68366 487.282 6.23039C487.649 6.77711 488.172 7.20197 488.782 7.45078C490.195 8.20584 491.759 8.63585 493.36 8.70934V97.3606L294.578 212.012L172.329 141.41V62.2439L85.4117 12.1473C87.5931 10.4283 87.3473 7.97261 84.6436 6.43779C82.9585 5.58305 81.0953 5.13759 79.2055 5.13759C77.3157 5.13759 75.4525 5.58305 73.7674 6.43779C73.157 6.6866 72.6345 7.11148 72.2667 7.65821C71.899 8.20493 71.7026 8.84871 71.7026 9.50743C71.7026 10.1662 71.899 10.81 72.2667 11.3567C72.6345 11.9034 73.157 12.3283 73.7674 12.5771C75.3006 13.3347 76.9751 13.7643 78.6839 13.8383C80.3927 13.9123 82.0982 13.6291 83.6912 13.0068L170.547 63.1034V142.423L292.796 213.025L272.426 224.781L271.996 225.027V304.224L236.726 283.903V234.482L165.047 193.133C167.198 191.384 166.952 188.959 164.249 187.393C162.561 186.546 160.699 186.104 158.81 186.104C156.922 186.104 155.06 186.546 153.372 187.393C152.773 187.653 152.263 188.082 151.905 188.627C151.547 189.172 151.356 189.811 151.356 190.463C151.356 191.115 151.547 191.753 151.905 192.299C152.263 192.844 152.773 193.273 153.372 193.533C154.905 194.29 156.58 194.72 158.289 194.794C159.998 194.868 161.703 194.585 163.296 193.962L235.005 235.495V284.947L271.873 306.281V327.768L480.425 448.067L449.702 465.779L45.4095 232.486V148.01L0 121.734V123.729ZM551.581 409.206L753.405 525.607L551.581 641.915L349.789 525.514L551.581 409.206Z" fill="#42E8E0"/>
</svg>
