<svg width="265" height="127" viewBox="0 0 265 127" fill="none" xmlns="http://www.w3.org/2000/svg">
<path d="M263.375 32.6006H1.93442V33.1901H263.375V32.6006Z" fill="#3FFF2D"/>
<path d="M263.375 47.9512H1.93442V48.5407H263.375V47.9512Z" fill="#3FFF2D"/>
<path d="M263.375 63.3254H1.93442V63.9148H263.375V63.3254Z" fill="#3FFF2D"/>
<path d="M263.375 78.6995H1.93442V79.2891H263.375V78.6995Z" fill="#3FFF2D"/>
<path d="M263.375 94.0502H1.93442V94.6397H263.375V94.0502Z" fill="#3FFF2D"/>
<path d="M247.988 109.424H1.93442V110.014H247.988V109.424Z" fill="#3FFF2D"/>
<path d="M233.12 126.26H0.754395V0.979919H264.555V94.8283L233.12 126.26ZM3.138 123.902H232.058L262.124 93.8615V3.33792H3.11439L3.138 123.902Z" fill="#2635FF"/>
<path d="M17.6048 2.15894H17.0148V125.081H17.6048V2.15894Z" fill="#3FFF2D"/>
<path d="M32.992 2.15894H32.402V125.081H32.992V2.15894Z" fill="#3FFF2D"/>
<path d="M48.3792 2.15894H47.7892V125.081H48.3792V2.15894Z" fill="#3FFF2D"/>
<path d="M63.7428 2.15894H63.1528V125.081H63.7428V2.15894Z" fill="#3FFF2D"/>
<path d="M79.13 2.15894H78.54V125.081H79.13V2.15894Z" fill="#3FFF2D"/>
<path d="M94.5172 2.15894H93.9272V125.081H94.5172V2.15894Z" fill="#3FFF2D"/>
<path d="M109.881 2.15894H109.291V125.081H109.881V2.15894Z" fill="#3FFF2D"/>
<path d="M125.268 2.15894H124.678V125.081H125.268V2.15894Z" fill="#3FFF2D"/>
<path d="M263.375 17.2265H1.93442V17.816H263.375V17.2265Z" fill="#3FFF2D"/>
<path d="M140.632 2.15894H140.042V125.081H140.632V2.15894Z" fill="#3FFF2D"/>
<path d="M156.019 2.15894H155.429V125.081H156.019V2.15894Z" fill="#3FFF2D"/>
<path d="M171.406 2.15894H170.816V125.081H171.406V2.15894Z" fill="#3FFF2D"/>
<path d="M186.77 2.15894H186.18V125.081H186.77V2.15894Z" fill="#3FFF2D"/>
<path d="M202.157 2.15894H201.567V125.081H202.157V2.15894Z" fill="#3FFF2D"/>
<path d="M217.544 2.15894H216.954V125.081H217.544V2.15894Z" fill="#3FFF2D"/>
<path d="M232.908 2.15894H232.318V125.081H232.908V2.15894Z" fill="#3FFF2D"/>
<path d="M248.295 5.15894H247.705V112.707H248.295V5.15894Z" fill="#3FFF2D"/>
</svg>
