<svg width="346" height="26" viewBox="0 0 346 26" fill="none" xmlns="http://www.w3.org/2000/svg">
<path d="M24.0624 0.864014L0.22644 18.3132V20.5062L27.036 0.864014H24.0624Z" fill="#793B99"/>
<path d="M39.5676 0.864014L5.32394 25.9296H8.32116L42.5648 0.864014H39.5676Z" fill="#793B99"/>
<path d="M55.0728 0.864014L20.8292 25.9296H23.8264L58.07 0.864014H55.0728Z" fill="#793B99"/>
<path d="M70.578 0.864014L36.3344 25.9296H39.3316L73.5752 0.864014H70.578Z" fill="#793B99"/>
<path d="M86.0832 0.864014L51.8632 25.9296H54.8604L89.0804 0.864014H86.0832Z" fill="#793B99"/>
<path d="M101.588 0.864014L67.3684 25.9296H70.3656L104.586 0.864014H101.588Z" fill="#793B99"/>
<path d="M117.094 0.864014L82.8736 25.9296H85.8708L120.091 0.864014H117.094Z" fill="#793B99"/>
<path d="M132.599 0.864014L98.3788 25.9296H101.376L135.596 0.864014H132.599Z" fill="#793B99"/>
<path d="M148.104 0.864014L113.884 25.9296H116.881L151.101 0.864014H148.104Z" fill="#793B99"/>
<path d="M163.609 0.864014L129.389 25.9296H132.386L166.63 0.864014H163.609Z" fill="#793B99"/>
<path d="M179.114 0.864014L144.894 25.9296H147.892L182.112 0.864014H179.114Z" fill="#793B99"/>
<path d="M194.643 0.864014L160.4 25.9296H163.397L197.64 0.864014H194.643Z" fill="#793B99"/>
<path d="M8.53357 0.864014L0.22644 6.97121V9.16412L11.5308 0.864014H8.53357Z" fill="#793B99"/>
<path d="M210.148 0.864014L175.905 25.9296H178.902L213.146 0.864014H210.148Z" fill="#793B99"/>
<path d="M225.654 0.864014L191.41 25.9296H194.407L228.651 0.864014H225.654Z" fill="#793B99"/>
<path d="M241.159 0.864014L206.939 25.9296H209.936L244.156 0.864014H241.159Z" fill="#793B99"/>
<path d="M256.664 0.864014L222.444 25.9296H225.441L259.661 0.864014H256.664Z" fill="#793B99"/>
<path d="M272.169 0.864014L237.949 25.9296H240.946L275.166 0.864014H272.169Z" fill="#793B99"/>
<path d="M287.674 0.864014L253.454 25.9296H256.452L290.672 0.864014H287.674Z" fill="#793B99"/>
<path d="M303.18 0.864014L268.96 25.9296H271.957L306.177 0.864014H303.18Z" fill="#793B99"/>
<path d="M318.685 0.864014L284.465 25.9296H287.462L321.682 0.864014H318.685Z" fill="#793B99"/>
<path d="M334.19 0.864014L299.97 25.9296H302.967L337.187 0.864014H334.19Z" fill="#793B99"/>
<path d="M315.475 25.9296H318.472L345.022 6.49964V4.30664L315.475 25.9296Z" fill="#793B99"/>
<path d="M333.978 25.9296L345.022 17.8416V15.6486L330.98 25.9296H333.978Z" fill="#793B99"/>
</svg>
