<svg width="1413" height="821" viewBox="0 0 1413 821" fill="none" xmlns="http://www.w3.org/2000/svg">
<path opacity="0.2" fill-rule="evenodd" clip-rule="evenodd" d="M1411.62 239.854L1413 239.311V243.179L1341 186.175L1251.06 172.796L1185.87 121.384C1184.19 121.759 1182.46 121.782 1180.77 121.451C1179.08 121.12 1177.49 120.442 1176.08 119.462C1175.51 119.126 1175.05 118.628 1174.77 118.033C1174.48 117.438 1174.38 116.772 1174.48 116.121C1174.58 115.469 1174.87 114.861 1175.32 114.375C1175.76 113.889 1176.35 113.546 1176.99 113.39C1178.79 112.786 1180.7 112.616 1182.57 112.895C1184.45 113.174 1186.23 113.893 1187.77 114.993C1190.25 116.946 1190.23 119.394 1187.71 120.758L1251.68 171.367L1338.26 184.247L1229.65 98.1933L1229.26 97.8565L1242.58 9.14688C1241 8.82981 1239.51 8.17405 1238.22 7.22546C1237.65 6.88914 1237.19 6.39172 1236.91 5.79664C1236.62 5.20156 1236.52 4.53581 1236.62 3.88432C1236.72 3.23281 1237.01 2.62512 1237.46 2.13877C1237.9 1.65242 1238.49 1.30944 1239.13 1.15361C1240.93 0.549891 1242.85 0.380824 1244.73 0.660365C1246.61 0.939906 1248.39 1.66004 1249.94 2.76129C1250.51 3.09759 1250.96 3.59501 1251.25 4.19009C1251.53 4.78518 1251.63 5.45094 1251.53 6.10243C1251.44 6.75392 1251.14 7.36161 1250.7 7.84797C1250.25 8.33433 1249.67 8.6773 1249.03 8.83313C1247.51 9.37103 1245.89 9.56512 1244.29 9.40119L1231.12 97.0786L1411.62 239.854ZM1190.04 444.669L1413 357.352V359.256L1191.89 445.845L1219.79 467.903L1413 392.205V394.099L1221.22 469.233L1243.81 486.933L1413 420.728V422.596L1245.34 488.341L1265.24 504.056L1413 446.137V448.034L1364.39 467.067L1390.61 487.821L1413 491.152V492.828L1393.36 489.906L1413 505.45V507.603L1362.55 467.693L1296.22 493.736L1329.86 498.741L1354.72 518.392C1356.41 517.992 1358.17 517.952 1359.88 518.276C1361.59 518.6 1363.21 519.28 1364.64 520.271C1365.21 520.608 1365.67 521.105 1365.95 521.7C1366.24 522.295 1366.33 522.961 1366.24 523.613C1366.14 524.264 1365.85 524.872 1365.4 525.358C1364.96 525.845 1364.37 526.187 1363.73 526.343C1361.93 526.947 1360.01 527.116 1358.13 526.837C1356.25 526.557 1354.47 525.837 1352.92 524.736C1350.49 522.823 1350.45 520.396 1352.88 519.018L1329.17 500.251L1292.9 494.856L1266.83 505.069L1312.47 541.158L1313.64 542.108L1296.22 548.827L1377.06 612.996L1406.43 617.365L1413 614.79V616.623L1406.83 619.039L1406.65 619.012L1376.12 614.471L1317.55 568.047L1312.48 601.807L1367.5 645.467C1369.18 645.087 1370.91 645.059 1372.6 645.385C1374.29 645.711 1375.89 646.383 1377.3 647.359C1377.87 647.696 1378.32 648.193 1378.61 648.788C1378.89 649.383 1378.99 650.049 1378.89 650.701C1378.8 651.352 1378.51 651.96 1378.06 652.446C1377.61 652.932 1377.03 653.275 1376.39 653.431C1374.58 654.02 1372.67 654.181 1370.79 653.902C1368.92 653.623 1367.13 652.911 1365.58 651.823C1363.13 649.876 1363.12 647.423 1365.67 646.033L1310.65 602.528L1316 566.947L1294.32 549.818L1203.79 585.266L1239.14 613.212L1289.27 620.669L1361.8 678.016L1413 685.632V687.029L1361.05 679.3L1288.51 621.954L1241.8 615.005L1413 750.709V753.125L1201.9 586.226L1167.98 599.492L1413 793.334V795.346L1166.15 600.027L1130.35 613.945L1279.3 731.759L1279.69 732.065L1267.4 813.883L1249.24 821H1244.79L1265.93 812.641L1277.92 732.796L1157.96 637.946L1151.87 678.537L1225.94 737.104L1219.76 778.211C1221.35 778.5 1222.84 779.159 1224.12 780.132C1226.92 782.287 1226.51 785.049 1223.21 786.204C1221.41 786.793 1219.49 786.954 1217.62 786.675C1215.74 786.396 1213.96 785.684 1212.41 784.596C1211.84 784.26 1211.38 783.763 1211.1 783.168C1210.81 782.573 1210.71 781.907 1210.81 781.255C1210.91 780.604 1211.2 779.996 1211.64 779.51C1212.09 779.023 1212.67 778.68 1213.32 778.525C1214.84 777.958 1216.47 777.765 1218.08 777.961L1224.11 737.857L1150.04 679.258L1156.42 636.755L1128.52 614.697L1092.56 628.93L1092.09 629.11L1073.4 614.318L1060.09 702.937L1125.06 754.347C1126.74 753.967 1128.48 753.939 1130.16 754.265C1131.85 754.59 1133.45 755.263 1134.86 756.239C1135.49 756.553 1136 757.056 1136.32 757.675C1136.64 758.294 1136.76 758.998 1136.65 759.686C1136.55 760.375 1136.23 761.014 1135.74 761.512C1135.25 762.011 1134.62 762.343 1133.93 762.462C1132.12 763.051 1130.21 763.213 1128.33 762.933C1126.45 762.654 1124.67 761.942 1123.12 760.855C1120.67 758.907 1120.66 756.454 1123.21 755.064L1058.24 703.654L1063.66 667.526L1005.96 689.979L1000.8 724.285L1106.82 808.09C1108.5 807.715 1110.23 807.692 1111.92 808.023C1113.61 808.354 1115.2 809.031 1116.61 810.012C1117.18 810.348 1117.64 810.846 1117.92 811.441C1118.21 812.036 1118.31 812.702 1118.21 813.353C1118.11 814.005 1117.82 814.612 1117.37 815.099C1116.93 815.585 1116.34 815.928 1115.7 816.084C1113.9 816.687 1111.98 816.857 1110.1 816.577C1108.22 816.297 1106.44 815.577 1104.89 814.476C1102.44 812.528 1102.43 810.075 1104.95 808.711L999.418 725.196L999.027 724.89L1004.45 688.792L1064.13 665.485L1072 613.024L1045.42 591.998L1018.69 602.455L1013.87 634.544L973.384 650.403C975.292 652.456 974.687 654.818 971.768 655.966C969.966 656.555 968.05 656.717 966.173 656.437C964.297 656.158 962.512 655.446 960.961 654.359C960.336 654.044 959.827 653.541 959.505 652.922C959.184 652.304 959.067 651.6 959.17 650.911C959.273 650.222 959.592 649.583 960.082 649.085C960.571 648.586 961.206 648.254 961.896 648.135C963.532 647.612 965.259 647.435 966.968 647.614C968.677 647.794 970.33 648.326 971.82 649.177L1012.31 633.319L1016.83 603.202L928.492 637.796L917.934 708.108L1029.63 796.483L1030.02 796.789L1026.39 821H1024.7L1028.19 797.758L916.313 709.14L915.922 708.833L926.781 636.518L1043.72 590.628L1023.86 574.917L872.215 634.297L852.412 766.178L808.141 783.522L802.514 821H800.828L806.329 784.37L712.74 821H707.947L850.834 765.043L870.637 633.163L1022.28 573.782L999.68 555.926L852.082 613.735L852.4 614.527L711.93 669.548L709.496 685.76L680.962 697.034L673.992 743.454L476.008 821H471.314L672.428 742.228L679.102 697.782L642.822 712.001C644.735 714.023 644.13 716.385 641.211 717.534C639.411 718.138 637.492 718.307 635.613 718.027C633.734 717.747 631.948 717.027 630.404 715.926C629.835 715.59 629.378 715.092 629.094 714.497C628.81 713.902 628.71 713.236 628.808 712.585C628.906 711.933 629.197 711.326 629.644 710.839C630.09 710.353 630.672 710.01 631.316 709.854C632.95 709.326 634.678 709.144 636.387 709.318C638.097 709.492 639.752 710.019 641.245 710.866L707.779 684.512L710.218 668.27L849.493 613.723L789.932 604.862L511.382 713.956L505.597 752.482L395.21 795.684C397.118 797.737 396.514 800.099 393.595 801.247C391.792 801.836 389.876 801.998 388 801.719C386.123 801.439 384.338 800.727 382.788 799.64C382.218 799.303 381.762 798.806 381.478 798.211C381.193 797.616 381.094 796.95 381.192 796.299C381.289 795.647 381.58 795.039 382.027 794.553C382.474 794.067 383.056 793.724 383.699 793.568C385.334 793.04 387.061 792.857 388.771 793.031C390.481 793.206 392.135 793.733 393.628 794.579L504.252 751.258L510.032 712.762L786.757 604.39L613.202 578.572L386.621 667.277L386.438 667.25L142.484 630.959L11.7967 527.717C10.12 528.092 8.38287 528.115 6.69667 527.784C5.01046 527.453 3.41218 526.775 2.0042 525.795C1.43455 525.458 0.978661 524.961 0.69442 524.366C0.410187 523.771 0.310547 523.105 0.408371 522.453C0.506203 521.802 0.797058 521.194 1.24368 520.708C1.69031 520.222 2.27239 519.879 2.91594 519.723C4.71834 519.134 6.63447 518.973 8.511 519.252C10.3875 519.531 12.1725 520.243 13.7232 521.33C16.1772 523.278 16.1834 525.731 13.6339 527.121L143.161 629.57L386.199 665.724L612.754 576.984L612.967 577.016L851.09 612.439L998.121 554.67L974.744 536.17L868.23 577.899L868.017 577.868L592.038 536.813L381.868 619.114C383.78 621.136 383.171 623.529 380.257 624.647C378.457 625.251 376.538 625.42 374.659 625.14C372.779 624.861 370.994 624.141 369.45 623.039C368.88 622.703 368.424 622.206 368.14 621.61C367.856 621.015 367.756 620.35 367.854 619.698C367.952 619.047 368.243 618.439 368.689 617.953C369.136 617.466 369.718 617.123 370.362 616.968C371.998 616.445 373.725 616.267 375.434 616.447C377.143 616.626 378.796 617.158 380.286 618.009L591.59 535.225L591.804 535.257L795.948 565.626L747.059 526.85L602.659 505.369C602.115 506.282 601.258 506.97 600.245 507.307C598.445 507.911 596.526 508.08 594.647 507.8C592.768 507.521 590.983 506.8 589.438 505.699C588.869 505.363 588.413 504.865 588.128 504.27C587.844 503.675 587.745 503.01 587.842 502.358C587.94 501.707 588.231 501.099 588.678 500.612C589.124 500.126 589.707 499.783 590.35 499.627C592.15 499.024 594.069 498.855 595.948 499.134C597.828 499.414 599.613 500.134 601.157 501.235C602.025 501.861 602.65 502.765 602.926 503.795L747.784 525.344L799.363 566.165L867.777 576.342L973.162 535.066L952.574 518.781L859.329 555.284L859.146 555.256L824.557 550.111L760.391 499.379L548.798 467.902L427.723 372.142C426.064 372.493 424.349 372.499 422.687 372.161C421.025 371.823 419.45 371.148 418.062 370.178C417.492 369.841 417.036 369.344 416.752 368.749C416.468 368.154 416.368 367.488 416.466 366.836C416.564 366.185 416.855 365.577 417.301 365.091C417.748 364.605 418.33 364.262 418.974 364.106C420.774 363.502 422.693 363.333 424.572 363.612C426.451 363.892 428.237 364.612 429.781 365.713C432.296 367.67 432.232 370.175 429.591 371.551L549.554 466.401L761.116 497.873L825.283 548.605L858.864 553.601L926.627 526.964L895.488 522.332L862.657 535.201L862.443 535.169L838.845 531.659L790.832 493.696C789.182 494.039 787.48 494.042 785.829 493.706C784.178 493.369 782.613 492.701 781.232 491.74C780.607 491.426 780.098 490.923 779.776 490.304C779.455 489.685 779.337 488.981 779.441 488.293C779.544 487.604 779.863 486.965 780.352 486.466C780.842 485.968 781.476 485.636 782.166 485.517C783.969 484.928 785.885 484.766 787.761 485.046C789.638 485.325 791.423 486.037 792.973 487.124C795.484 489.112 795.42 491.616 792.748 492.988L839.558 530.027L862.241 533.401L895.067 520.562L895.281 520.594L929.839 525.734L951.024 517.464L922.04 494.53L875.301 487.577L822.311 445.553C820.635 445.928 818.898 445.951 817.211 445.62C815.525 445.289 813.927 444.612 812.519 443.631C811.949 443.295 811.493 442.797 811.209 442.202C810.925 441.607 810.825 440.941 810.923 440.29C811.021 439.638 811.312 439.031 811.758 438.544C812.205 438.058 812.787 437.715 813.431 437.559C815.231 436.956 817.15 436.786 819.029 437.066C820.908 437.346 822.694 438.066 824.238 439.167C826.692 441.115 826.698 443.568 824.153 444.927L876.019 485.915L919.339 492.359L906.899 482.501L905.727 481.582L930.894 471.731L873.595 426.397L807.684 416.592L732.145 446.169C734.053 448.222 733.449 450.584 730.53 451.733C728.727 452.322 726.811 452.483 724.935 452.204C723.058 451.925 721.273 451.213 719.723 450.125C719.153 449.789 718.697 449.291 718.413 448.696C718.128 448.101 718.029 447.435 718.127 446.784C718.225 446.132 718.515 445.525 718.962 445.038C719.409 444.552 719.991 444.209 720.634 444.053C722.27 443.53 723.998 443.353 725.707 443.533C727.416 443.712 729.068 444.244 730.559 445.095L769.46 429.839L639.408 410.492L605.234 383.465L530.744 372.384C530.179 373.299 529.315 373.992 528.296 374.347C526.493 374.936 524.577 375.098 522.701 374.818C520.824 374.539 519.039 373.827 517.488 372.74C516.864 372.425 516.354 371.922 516.033 371.303C515.711 370.684 515.594 369.981 515.697 369.292C515.801 368.603 516.12 367.964 516.609 367.466C517.098 366.968 517.733 366.635 518.423 366.516C520.225 365.927 522.141 365.766 524.018 366.045C525.894 366.324 527.679 367.036 529.23 368.124C530.098 368.749 530.723 369.653 530.999 370.684L605.977 381.837L640.121 408.86L772.676 428.579L807.222 415.096L807.436 415.127L870.844 424.56L847.107 405.759L697.914 383.564L662.736 355.736L548.559 338.751L498.679 299.3C497.002 299.675 495.265 299.698 493.579 299.367C491.893 299.036 490.294 298.359 488.886 297.378C488.317 297.042 487.861 296.544 487.576 295.949C487.292 295.354 487.193 294.688 487.291 294.037C487.388 293.385 487.679 292.778 488.126 292.291C488.572 291.805 489.155 291.462 489.798 291.306C491.598 290.702 493.517 290.533 495.396 290.813C497.276 291.092 499.061 291.813 500.605 292.914C503.059 294.862 503.065 297.315 500.521 298.674L549.318 336.816L660.076 353.292L542.911 260.597L448.76 246.591L412.488 217.948C410.811 218.323 409.074 218.346 407.388 218.015C405.702 217.684 404.103 217.006 402.695 216.026C402.126 215.689 401.67 215.192 401.386 214.597C401.101 214.002 401.002 213.336 401.1 212.685C401.197 212.033 401.488 211.425 401.935 210.939C402.381 210.453 402.964 210.11 403.607 209.954C405.41 209.365 407.326 209.204 409.202 209.483C411.079 209.762 412.864 210.474 414.414 211.562C416.868 213.51 416.875 215.962 414.325 217.352L449.394 245.071L543.605 259.086L698.673 381.629L847.866 403.823L932.754 470.984L979.808 452.564L881.055 374.433L764.711 357.125L644.14 261.751C642.438 262.121 640.676 262.129 638.97 261.774C637.265 261.418 635.654 260.708 634.244 259.689C633.674 259.353 633.218 258.855 632.934 258.26C632.65 257.665 632.55 256.999 632.648 256.348C632.746 255.696 633.037 255.089 633.483 254.602C633.93 254.116 634.512 253.773 635.156 253.617C636.956 253.014 638.875 252.844 640.754 253.124C642.633 253.404 644.419 254.124 645.963 255.225C648.417 257.173 648.423 259.626 645.878 260.985L765.302 355.475L878.257 372.279L748.266 269.388L747.875 269.082L757.713 203.567L563.165 49.6381C561.488 50.0131 559.751 50.0358 558.065 49.7048C556.379 49.3738 554.78 48.6963 553.372 47.7158C552.803 47.3795 552.347 46.8821 552.062 46.287C551.778 45.6919 551.679 45.0262 551.776 44.3747C551.874 43.7232 552.165 43.1155 552.612 42.6291C553.058 42.1428 553.641 41.7998 554.284 41.644C556.087 41.055 558.003 40.8937 559.879 41.1729C561.756 41.452 563.541 42.1639 565.091 43.2517C567.545 45.1996 567.551 47.6525 565.002 49.0424L759.164 202.634L759.555 202.941L749.699 268.577L981.662 452.064L1022.1 436.353L883.09 326.379L882.703 326.042L902.556 193.828L778.745 95.9231C777.069 96.2981 775.332 96.3208 773.646 95.9898C771.959 95.6588 770.361 94.9814 768.953 94.0009C768.383 93.6646 767.927 93.1672 767.643 92.5721C767.359 91.977 767.259 91.3112 767.357 90.6597C767.455 90.0082 767.746 89.4006 768.192 88.9142C768.639 88.4278 769.221 88.0849 769.865 87.929C771.665 87.3253 773.584 87.1562 775.463 87.4358C777.342 87.7153 779.128 88.4355 780.672 89.5367C783.126 91.4847 783.132 93.9376 780.587 95.2971L904.003 192.926L904.394 193.232L884.627 324.87L1024.12 435.164L1049.09 425.377L945.875 343.696L969.07 189.228L919.127 149.985L927.866 91.7868L884.045 57.0859C882.37 57.4659 880.633 57.4939 878.946 57.1681C877.259 56.8424 875.659 56.17 874.248 55.194C873.679 54.8577 873.223 54.3603 872.938 53.7652C872.654 53.1701 872.554 52.5044 872.652 51.8529C872.75 51.2014 873.041 50.5937 873.488 50.1073C873.934 49.621 874.516 49.278 875.16 49.1222C876.962 48.5332 878.878 48.3719 880.755 48.651C882.631 48.9302 884.416 49.6421 885.967 50.7299C888.421 52.6778 888.427 55.1307 885.878 56.5206L929.734 91.1955L921.004 149.333L970.659 188.627L947.45 343.185L1050.66 424.897L1084.35 411.72L1005.46 349.053L1044.24 90.8175L1045.95 91.0718L1023.23 242.352L1070.32 223.906L1083.06 139.082C1081.47 138.801 1079.97 138.142 1078.7 137.161C1078.13 136.825 1077.67 136.327 1077.39 135.732C1077.1 135.137 1077 134.471 1077.1 133.82C1077.2 133.168 1077.49 132.561 1077.94 132.074C1078.38 131.588 1078.97 131.245 1079.61 131.089C1081.41 130.5 1083.33 130.339 1085.2 130.618C1087.08 130.897 1088.87 131.609 1090.42 132.697C1090.99 133.033 1091.44 133.531 1091.73 134.126C1092.01 134.721 1092.11 135.387 1092.01 136.038C1091.91 136.69 1091.62 137.297 1091.18 137.784C1090.73 138.27 1090.15 138.613 1089.5 138.769C1087.99 139.327 1086.37 139.522 1084.77 139.337L1071.89 225.132L1022.91 244.29L1016.07 289.829L1078.05 265.559C1076.32 263.564 1076.97 261.302 1079.83 260.175C1081.63 259.571 1083.54 259.402 1085.42 259.682C1087.3 259.961 1089.09 260.681 1090.63 261.783C1091.2 262.119 1091.66 262.616 1091.94 263.211C1092.23 263.806 1092.33 264.472 1092.23 265.124C1092.13 265.775 1091.84 266.383 1091.39 266.869C1090.95 267.356 1090.36 267.699 1089.72 267.854C1088.05 268.404 1086.28 268.585 1084.53 268.384C1082.78 268.183 1081.1 267.605 1079.6 266.69L1015.79 291.681L1007.32 348.119L1086.37 410.748L1116.37 399.011L1077.96 368.621L1083.29 333.162L1094.82 328.67L1097.56 310.455L1179.82 278.309L1184.43 247.585L1251.41 221.36C1249.54 219.312 1250.14 216.949 1253.06 215.801C1254.86 215.212 1256.78 215.05 1258.65 215.33C1260.53 215.609 1262.32 216.321 1263.87 217.408C1264.44 217.745 1264.89 218.242 1265.18 218.837C1265.46 219.432 1265.56 220.098 1265.46 220.75C1265.36 221.401 1265.07 222.009 1264.63 222.495C1264.18 222.981 1263.6 223.324 1262.95 223.48C1261.32 224.008 1259.59 224.191 1257.88 224.017C1256.17 223.843 1254.52 223.315 1253.03 222.469L1186.01 248.689L1181.4 279.413L1099.12 311.65L1096.7 327.801L1234.98 273.634C1233.25 271.639 1233.91 269.347 1236.76 268.219C1238.56 267.63 1240.48 267.469 1242.36 267.748C1244.23 268.027 1246.02 268.739 1247.57 269.827C1248.19 270.142 1248.7 270.644 1249.02 271.263C1249.35 271.882 1249.46 272.586 1249.36 273.275C1249.26 273.964 1248.94 274.603 1248.45 275.101C1247.96 275.599 1247.32 275.931 1246.63 276.051C1244.96 276.584 1243.19 276.757 1241.45 276.556C1239.7 276.355 1238.02 275.785 1236.51 274.886L1125.62 318.323L1176.72 325.925L1240.53 300.934C1238.65 298.886 1239.22 296.519 1242.17 295.375C1243.97 294.786 1245.89 294.625 1247.77 294.904C1249.64 295.183 1251.43 295.895 1252.98 296.983C1253.55 297.319 1254 297.816 1254.29 298.411C1254.57 299.006 1254.67 299.672 1254.57 300.324C1254.48 300.975 1254.19 301.583 1253.74 302.069C1253.29 302.556 1252.71 302.899 1252.07 303.054C1250.43 303.577 1248.7 303.754 1246.99 303.575C1245.29 303.396 1243.63 302.863 1242.14 302.013L1176.98 327.546L1122.49 319.44L1084.94 334.401L1079.89 368.009L1118.31 398.368L1126.8 395.037L1127.27 394.858L1137.09 402.776L1328.8 327.691L1329.01 327.723L1377.18 334.889C1377.73 333.976 1378.59 333.288 1379.6 332.951C1381.4 332.362 1383.32 332.201 1385.19 332.48C1387.07 332.759 1388.85 333.471 1390.41 334.559C1390.97 334.895 1391.43 335.393 1391.72 335.988C1392 336.583 1392.1 337.249 1392 337.9C1391.9 338.552 1391.61 339.159 1391.17 339.646C1390.72 340.132 1390.14 340.475 1389.49 340.631C1387.69 341.22 1385.78 341.381 1383.9 341.102C1382.02 340.823 1380.24 340.111 1378.69 339.023C1377.81 338.402 1377.19 337.482 1376.95 336.437L1329.14 329.325L1138.6 403.962L1163.09 423.342L1322.27 360.954C1320.37 358.902 1320.97 356.539 1323.92 355.395C1325.72 354.806 1327.63 354.644 1329.5 354.922C1331.37 355.201 1333.15 355.912 1334.7 356.999C1335.32 357.313 1335.83 357.816 1336.15 358.435C1336.47 359.054 1336.59 359.757 1336.49 360.446C1336.38 361.135 1336.06 361.774 1335.58 362.272C1335.09 362.771 1334.45 363.103 1333.76 363.222C1332.13 363.745 1330.4 363.922 1328.69 363.743C1326.98 363.563 1325.33 363.031 1323.84 362.18L1164.65 424.598L1190.04 444.669ZM1126.96 396.892L909.132 482.181L1092.4 627.045L1310.2 541.751L1126.96 396.892Z" fill="#42E8E0"/>
</svg>
