<svg id="Capa_1" enable-background="new 0 0 512 512" height="512" viewBox="0 0 512 512" width="512" xmlns="http://www.w3.org/2000/svg" xmlns:xlink="http://www.w3.org/1999/xlink"><linearGradient id="SVGID_1_" gradientUnits="userSpaceOnUse" x1="256" x2="256" y1="512" y2="0"><stop offset="0" stop-color="#fd3a84"/><stop offset="1" stop-color="#ffa68d"/></linearGradient><linearGradient id="SVGID_2_" gradientUnits="userSpaceOnUse" x1="256" x2="256" y1="421" y2="91"><stop offset="0" stop-color="#ffc2cc"/><stop offset="1" stop-color="#fff2f4"/></linearGradient><g><g><g><path d="m436 0h-361c-41.367 0-75 33.647-75 75v361c0 41.353 33.633 76 75 76h361c41.367 0 76-34.647 76-76v-361c0-41.353-34.633-75-76-75z" fill="url(#SVGID_1_)"/></g></g><g><g><path d="m166 91c-41.367 0-75 33.647-75 75v180c0 41.353 33.633 75 75 75s75-33.647 75-75v-180c0-41.353-33.633-75-75-75zm0 300c-24.814 0-45-20.186-45-45s20.186-45 45-45 45 20.186 45 45-20.186 45-45 45zm180-300c-41.367 0-75 33.647-75 75v180c0 41.353 33.633 75 75 75s75-33.647 75-75v-180c0-41.353-33.633-75-75-75zm0 120c-24.814 0-45-20.186-45-45s20.186-45 45-45 45 20.186 45 45-20.186 45-45 45z" fill="url(#SVGID_2_)"/></g></g></g></svg>